<svg width="308" height="176" viewBox="0 0 308 176" fill="none" xmlns="http://www.w3.org/2000/svg">
<path d="M146.569 107.851C156.31 112.502 164.941 119.669 170.821 128.768C176.613 137.602 179.685 148.046 180.562 158.519C180.796 161.035 181.06 163.668 180.036 166.038C178.398 170.25 173.775 173.029 169.27 172.415C164.502 171.947 160.494 167.734 160.231 162.937C159.909 157.027 158.856 151.089 156.515 145.647C154.263 140.294 150.694 135.467 146.188 131.81C141.976 128.358 137.032 125.871 131.912 124.087C131.912 124.087 131.912 124.087 131.883 124.087C134.019 119.757 136.417 116.861 138.173 115.018C141.508 111.566 146.569 107.792 146.598 107.851H146.569Z" fill="#1F1F1F"/>
<path d="M143.527 121.512C136.418 130.171 126.998 137.017 116.291 140.44C105.379 144.038 93.56 144.009 82.3848 141.668C80.0737 141.171 77.9966 139.825 76.5339 137.982C74.2521 135.174 73.6377 131.107 75.0419 127.743C76.7387 123.326 81.7412 120.576 86.3927 121.453C93.9988 123.004 102.073 123.267 109.562 120.927C116.203 118.908 122.083 114.783 126.647 109.547C126.647 109.401 143.79 121.512 143.556 121.512H143.527Z" fill="#1F1F1F"/>
<path d="M151.454 52.9974C156.369 47.7023 165.116 46.5907 171.143 50.5693C173.483 52.383 175.355 54.6649 177.345 56.8297C181.616 61.3934 186.706 65.2842 192.528 67.5953C197.091 69.4091 202.123 70.1112 207.008 69.4676C212.04 68.8533 216.896 67.0395 221.285 64.5529C222.835 63.6167 224.561 62.9731 226.404 63.0024C229.973 63.0024 233.367 65.5183 234.391 68.9703C235.561 72.5686 233.952 76.7812 230.705 78.6828C224.854 82.1348 218.447 84.6799 211.748 85.8793C204.463 87.1958 196.886 86.7277 189.836 84.5336C183.927 82.7199 178.427 79.7359 173.483 76.0499C168.539 82.2225 165.058 87.7516 162.717 91.8765C159.616 97.3471 156.866 102.145 154.292 109.078C152.946 112.735 152.654 114.198 151.045 116.626C150.079 118.059 146.569 123.559 139.606 125.285C136.008 126.163 130.567 127.508 126.793 124.495C123.721 122.038 123.224 117.884 122.727 113.32C122.024 107.118 123.048 102.291 123.282 101.179C126.325 87.5176 136.447 69.1751 151.513 52.9389L151.454 52.9974Z" fill="#1F1F1F"/>
<path d="M167.72 1.94914C171.815 -0.625244 178.017 0.252388 180.767 4.40652C182.844 7.15643 184.951 9.90635 187.057 12.6563C170.909 23.1001 154.76 33.5439 138.612 43.9877C137.763 44.6898 136.388 44.3388 135.979 43.3441C135.511 42.525 136.037 41.5011 136.798 41.0916C141.508 38.0198 146.247 34.9774 150.986 31.9349C150.343 28.4244 149.787 24.9139 149.026 21.4326C148.266 17.5417 150.109 13.2999 153.473 11.1643C158.212 8.09257 162.981 5.02086 167.72 1.9784V1.94914Z" fill="#FFBF00"/>
<path d="M154.234 35.2694C165.233 28.1313 176.262 21.0517 187.262 13.8844C190.597 17.4827 192.586 22.3389 192.615 27.2537C192.732 32.812 190.333 38.3411 186.267 42.1149C181.616 46.5031 174.741 48.4339 168.51 47.0297C162.191 45.7425 156.749 41.1788 154.263 35.2694H154.234Z" fill="#1F1F1F"/>
<path d="M205.897 28.1317C226.843 28.1317 247.76 28.1317 268.706 28.1317C268.706 48.0832 268.706 68.0055 268.706 87.9277C249.311 87.9277 229.915 87.9277 210.519 87.9277C209.642 87.9277 208.793 87.84 207.945 87.8107C215.522 87.2549 222.835 84.622 229.476 81.053C232.109 79.795 234.537 77.8642 235.59 75.085C237.375 70.9894 236.029 65.8699 232.489 63.1785C229.301 60.6041 224.532 60.2531 220.992 62.3301C216.37 65.0215 211.251 66.9816 205.897 67.5374C205.897 54.4022 205.897 41.2669 205.897 28.1317Z" fill="#1F1F1F"/>
<rect x="232.5" y="7.5" width="75" height="6" rx="3" fill="#1F1F1F"/>
<rect x="39.5" y="33.5" width="71" height="6" rx="3" fill="#1F1F1F"/>
<rect x="94.5" y="58.5" width="30" height="6" rx="3" fill="#1F1F1F"/>
<rect x="0.5" y="93.5" width="98" height="6" rx="3" fill="#1F1F1F"/>
<rect x="210.5" y="104.5" width="26" height="6" rx="3" fill="#1F1F1F"/>
<rect x="223.5" y="134.5" width="75" height="6" rx="3" fill="#1F1F1F"/>
<rect x="26.5" y="169.5" width="98" height="6" rx="3" fill="#1F1F1F"/>
</svg>
