<svg width="126" height="76" viewBox="0 0 126 76" fill="none" xmlns="http://www.w3.org/2000/svg">
<path d="M20.0498 28.0711C20.2198 27.9911 20.2998 27.7111 20.4198 27.5311C20.2098 27.4411 19.9898 27.2511 19.8098 27.2911C19.3298 27.3811 18.8498 27.5411 18.3998 27.7311C18.2398 27.8011 18.1498 28.0411 18.0298 28.2011C18.2098 28.3111 18.3998 28.4311 18.6098 28.5611C19.1198 28.3911 19.6098 28.2711 20.0598 28.0711H20.0498Z" fill="white"/>
<path d="M25.1099 28.8012C25.4899 28.7512 25.8399 28.4112 26.1999 28.1912C25.9399 27.9412 25.6899 27.6912 25.4299 27.4412C24.7999 27.6212 24.2599 27.7012 24.2599 28.3012C24.2599 28.4812 24.8399 28.8412 25.1099 28.8012Z" fill="white"/>
<path d="M23.8498 26.0211C23.1398 25.6111 21.7998 25.8411 21.4298 26.4411C21.3598 26.5611 21.4298 26.9311 21.5398 26.9811C22.1998 27.3211 23.4798 26.7811 23.8498 26.0211Z" fill="white"/>
<path d="M32.9698 27.1112C33.1998 26.9812 33.4498 26.8412 33.6998 26.7012C33.4898 26.4812 33.3098 26.1812 33.0498 26.0612C32.7698 25.9312 32.3998 25.9412 32.0798 25.9812C31.8998 26.0012 31.7498 26.2012 31.5798 26.3212C31.6998 26.4812 31.7898 26.7012 31.9498 26.7812C32.2398 26.9312 32.5698 26.9912 32.9698 27.1112Z" fill="white"/>
<path d="M29.2699 26.6212C28.9399 26.4112 28.6199 26.0712 28.2599 26.0212C27.9799 25.9912 27.6599 26.3212 27.3599 26.4912C27.6599 26.7112 27.9699 26.9212 28.3399 27.1912C28.7099 26.9612 28.9899 26.7912 29.2599 26.6112L29.2699 26.6212Z" fill="white"/>
<path d="M44.7998 14.4611C40.1398 9.87115 33.8198 7.55115 26.0198 7.55115C18.2198 7.55115 11.8998 9.88115 7.23984 14.4711C2.56984 19.0611 0.209839 25.6711 0.209839 34.0911V49.0911C0.209839 57.5211 2.57984 64.1211 7.23984 68.7111C11.8998 73.3011 18.2198 75.6211 26.0198 75.6211C33.8198 75.6211 40.1398 73.2911 44.7998 68.7111C49.4698 64.1211 51.8298 57.5111 51.8298 49.0911V34.0911C51.8298 25.6711 49.4598 19.0611 44.7998 14.4711V14.4611ZM11.7398 33.3511C12.6498 30.2411 14.7598 28.1911 17.5498 26.7311C20.0598 25.4211 22.7798 24.8511 25.5698 24.6311C29.5898 24.3111 33.5298 24.6811 37.3098 26.1611C40.3998 27.3711 42.8098 29.3711 44.1498 32.4811C44.3798 33.0011 44.5398 33.5611 44.6598 34.1211C44.8698 35.1611 44.7298 35.5211 43.9098 36.2411C44.1498 36.2911 44.3498 36.3311 44.7098 36.4111C44.5998 36.6511 44.5498 36.9111 44.3898 37.0511C44.2798 37.1511 44.0198 37.0811 43.8298 37.0811C33.3198 37.0811 22.7998 37.0811 12.2898 37.0811C11.8798 37.0811 11.3398 37.2211 11.5698 36.3911C11.8198 36.3611 12.0498 36.3411 12.4498 36.2911C11.1898 35.4611 11.4298 34.4111 11.7398 33.3511ZM10.4998 39.9211C10.0098 39.6011 10.0998 39.1611 10.5898 39.0111C11.2098 38.8311 11.9398 38.6211 12.5098 38.8011C14.0098 39.2811 15.4498 39.9411 16.8998 40.5711C17.4898 40.8211 18.0498 41.1711 18.6298 41.4411C20.0198 42.0811 21.1998 41.8411 22.0498 40.5811C22.8298 39.4211 23.9198 38.9611 25.1998 38.8511C27.1698 38.6811 29.0598 38.9811 30.8798 39.8111C31.6098 40.1411 32.4198 40.3511 33.2198 40.4211C33.7498 40.4711 34.4498 40.3311 34.8298 40.0011C36.1398 38.8511 37.6298 38.9611 39.1198 39.2211C40.1698 39.4011 41.1898 39.7911 42.2298 40.0911C42.7998 40.2511 43.3698 40.4711 43.9598 40.5511C44.4898 40.6211 44.7998 40.8311 44.9398 41.3411C45.2098 42.3511 45.4798 43.3611 45.7898 44.5211C43.7598 44.6111 41.8898 44.7511 40.0198 44.7611C30.8498 44.7811 21.6798 44.7811 12.5098 44.7611C11.7098 44.7611 10.8998 44.6311 9.95984 44.5411C10.2498 43.3611 10.4898 42.2211 10.8098 41.1011C10.9498 40.6011 10.9898 40.2511 10.4998 39.9311V39.9211ZM46.6698 49.4311C46.4898 49.8811 46.2098 50.0911 45.8298 49.6411C45.2798 48.9711 44.6198 49.1711 43.8898 49.3611C45.0798 50.0811 44.7598 51.1511 44.6198 52.1511C44.4398 53.4511 43.7698 54.5111 42.5198 54.9511C41.2198 55.4111 39.8598 55.8011 38.4998 55.9711C33.1198 56.6311 27.7198 56.5611 22.3198 56.3311C19.9098 56.2211 17.4898 55.9111 15.1098 55.5211C13.3098 55.2311 11.9398 54.2311 11.6198 52.2711C11.4498 51.2111 10.9698 50.0011 12.5698 49.4311L12.4698 49.2411C11.8998 49.2411 11.3198 49.1811 10.7598 49.2611C10.1898 49.3411 9.88984 49.1311 9.71984 48.6311C9.71984 48.6111 9.69984 48.5911 9.68984 48.5611C8.90984 46.5611 9.10984 46.1511 11.1198 45.5511C11.4198 45.4611 11.7298 45.4011 12.0198 45.2811C12.7898 44.9811 13.3898 44.9111 14.0598 45.6911C14.4498 46.1411 15.3598 46.3111 16.0398 46.3011C17.5398 46.2611 19.0898 46.2111 20.5298 45.8311C23.5598 45.0211 25.9098 46.2311 28.1398 48.0111C28.3098 48.1411 28.4598 48.3011 28.6098 48.4511C29.4498 49.2511 29.7698 49.2111 30.3098 48.1611C30.5798 47.6311 30.7698 47.0611 30.9998 46.5011C31.3198 45.7011 31.6398 45.5111 32.4998 45.7011C34.0998 46.0611 35.4998 46.8211 36.7998 47.7911C37.3698 48.2211 37.9898 48.5911 38.5998 48.9711C38.9798 49.2111 39.2698 49.1011 39.4598 48.6811C39.6398 48.2911 39.8298 47.9011 40.0298 47.5211C40.2398 47.1111 40.5398 46.9611 40.9698 47.2011C41.0698 47.2611 41.1898 47.3011 41.2998 47.3411C42.4598 47.8111 43.0998 47.4611 43.3198 46.2511C43.4698 45.4211 43.5498 45.3611 44.3298 45.6511C44.7498 45.8111 45.1698 46.0111 45.5598 46.2411C46.8898 47.0111 47.2298 48.0311 46.6498 49.4511L46.6698 49.4311Z" fill="white"/>
<path d="M38.7599 28.9612C38.9499 28.9212 39.1999 28.7812 39.2499 28.6212C39.2999 28.4712 39.1999 28.1612 39.0699 28.0612C38.6099 27.7412 38.0999 27.4912 37.6099 27.2212C36.9999 27.3312 36.7999 27.6412 37.0499 28.1212C37.3199 28.6412 38.1899 29.0912 38.7599 28.9612Z" fill="white"/>
<path d="M105.9 33.3443C105.49 33.3343 105.17 33.3143 104.85 33.3043C104.27 33.2743 103.74 33.0743 103.29 32.7743C101.46 32.7543 99.62 32.5042 97.87 31.9642C97.03 31.7142 96.2101 31.3643 95.3801 30.9843C95.4601 31.6843 95.5201 32.4142 95.5201 33.1842V40.3643C96.2301 41.1743 96.91 42.0143 97.49 42.9143C99.61 46.1443 100.93 50.1543 101.3 54.4843C101.4 55.5643 101.54 57.0143 100.87 58.5443C99.94 60.9443 97.4701 62.5843 94.8301 62.5843C94.5501 62.5843 94.2601 62.5643 93.9701 62.5243C92.2701 62.3543 90.7301 61.4043 89.6601 60.0443C87.8501 60.9943 85.6701 61.4642 83.0501 61.4642C79.0701 61.4642 76.0701 60.3643 73.8601 58.0943C72.4801 56.6743 71.5401 54.9642 71.0301 52.9342C67.6301 53.6642 63.89 53.6543 60.08 52.8543C58.57 52.5243 57.24 51.6843 56.3 50.4943C56.06 50.1943 55.8601 49.8743 55.6801 49.5443C55.8801 57.4943 58.3701 63.7743 63.1401 68.1842C68.0801 72.7543 74.78 75.0643 83.04 75.0643C91.3 75.0643 98.0001 72.7543 102.94 68.1842C107.92 63.5842 110.44 56.9743 110.44 48.5343V33.5343C110.44 33.4643 110.44 33.4143 110.44 33.3443H105.91H105.9Z" fill="white"/>
<path d="M97.48 18.1743C98.54 19.1643 99.66 19.9143 100.82 20.3743C100.96 20.4343 101.11 20.4743 101.25 20.5143V14.2543C100.74 15.2243 100.07 16.1143 99.27 16.8543C98.73 17.3643 98.12 17.8043 97.48 18.1743Z" fill="white"/>
<path d="M62.64 39.9343C65.11 40.4343 67.26 40.4043 69.07 39.8343C69.58 39.6843 70.08 39.4643 70.56 39.2143V33.1743C70.56 29.2643 71.64 26.2543 73.85 23.9743C75.36 22.4143 77.26 21.4243 79.57 20.9443C80.21 20.0343 80.88 19.1343 81.58 18.2743C81.25 18.3743 80.9 18.4343 80.55 18.4343C80.25 18.4343 79.96 18.3943 79.66 18.3243C78.61 18.0643 77.72 17.3443 77.26 16.3843C76.86 15.5843 76.77 14.6743 77.02 13.8043C77.28 12.9043 77.88 12.1243 78.69 11.6443L81.76 9.66433C81.67 9.17433 81.58 8.67433 81.47 8.18433C81.4 7.81433 81.36 7.43433 81.36 7.06433C73.87 7.36433 67.73 9.63433 63.13 13.8843C58.15 18.4843 55.63 25.0943 55.63 33.5343V43.3643C56.89 40.8843 59.79 39.4043 62.63 39.9343H62.64Z" fill="white"/>
<path d="M90.8601 0.874145C92.2601 -0.00585544 94.3801 0.294141 95.3201 1.71414C96.0301 2.65414 96.7501 3.59415 97.4701 4.53415C91.9501 8.10415 86.4301 11.6741 80.9101 15.2441C80.6201 15.4841 80.1501 15.3641 80.0101 15.0241C79.8501 14.7441 80.0301 14.3941 80.2901 14.2541C81.9001 13.2041 83.5201 12.1641 85.1401 11.1241C84.9201 9.92414 84.7301 8.72415 84.4701 7.53415C84.2101 6.20415 84.8401 4.75415 85.9901 4.02415C87.6101 2.97415 89.2401 1.92414 90.8601 0.884143V0.874145Z" fill="#FFBF00"/>
<path d="M86.2402 12.2641C90.0002 9.8241 93.7702 7.4041 97.5302 4.9541C98.6702 6.1841 99.3502 7.8441 99.3602 9.5241C99.4002 11.4241 98.5802 13.3141 97.1902 14.6041C95.6002 16.1041 93.2502 16.7641 91.1202 16.2841C88.9602 15.8441 87.1002 14.2841 86.2502 12.2641H86.2402Z" fill="white"/>
<path d="M104.32 9.8241C111.48 9.8241 118.63 9.8241 125.79 9.8241C125.79 16.6441 125.79 23.4541 125.79 30.2641C119.16 30.2641 112.53 30.2641 105.9 30.2641C105.6 30.2641 105.31 30.2341 105.02 30.2241C107.61 30.0341 110.11 29.1341 112.38 27.9141C113.28 27.4841 114.11 26.8241 114.47 25.8741C115.08 24.4741 114.62 22.7241 113.41 21.8041C112.32 20.9241 110.69 20.8041 109.48 21.5141C107.9 22.4341 106.15 23.1041 104.32 23.2941C104.32 18.8041 104.32 14.3141 104.32 9.8241Z" fill="#FFBF00"/>
<path d="M85.6602 18.2342C87.3402 16.4242 90.3302 16.0442 92.3902 17.4042C93.1902 18.0242 93.8302 18.8042 94.5102 19.5442C95.9702 21.1042 97.7102 22.4342 99.7002 23.2242C101.26 23.8442 102.98 24.0842 104.65 23.8642C106.37 23.6542 108.03 23.0342 109.53 22.1842C110.06 21.8642 110.65 21.6442 111.28 21.6542C112.5 21.6542 113.66 22.5142 114.01 23.6942C114.41 24.9242 113.86 26.3642 112.75 27.0142C110.75 28.1942 108.56 29.0642 106.27 29.4742C103.78 29.9242 101.19 29.7642 98.7802 29.0142C96.7602 28.3942 94.8802 27.3742 93.1902 26.1142C90.4802 29.5442 88.2602 33.3542 86.6302 37.4042C89.9602 38.9942 92.9102 41.4442 94.9202 44.5542C96.9002 47.5742 97.9502 51.1442 98.2502 54.7242C98.3302 55.5842 98.4202 56.4842 98.0702 57.2942C97.5102 58.7342 95.9302 59.6842 94.3902 59.4742C92.7602 59.3142 91.3902 57.8742 91.3002 56.2342C91.1902 54.2142 90.8302 52.1842 90.0302 50.3242C89.2602 48.4942 88.0402 46.8442 86.5002 45.5942C85.0602 44.4142 83.3702 43.5642 81.6202 42.9542C79.1902 45.9142 75.9702 48.2542 72.3102 49.4242C68.5802 50.6542 64.5402 50.6442 60.7202 49.8442C59.9302 49.6742 59.2202 49.2142 58.7202 48.5842C57.9402 47.6242 57.7302 46.2342 58.2102 45.0842C58.7902 43.5742 60.5002 42.6342 62.0902 42.9342C64.6902 43.4642 67.4502 43.5542 70.0102 42.7542C72.2802 42.0642 74.2902 40.6542 75.8502 38.8642C75.3602 37.5142 75.5302 36.0242 76.0402 34.7142C78.0502 28.6142 81.3502 22.9542 85.6902 18.2242L85.6602 18.2342Z" fill="white"/>
</svg>
