<svg width="218" height="138" viewBox="0 0 218 138" fill="none" xmlns="http://www.w3.org/2000/svg">
<path d="M12.405 64.99C15.915 67.06 19.885 68.1 24.185 68.1C27.465 68.1 30.015 67.68 31.975 66.81C33.945 65.94 35.465 64.82 36.485 63.49C36.725 63.18 36.945 62.87 37.155 62.57V66.85H50.505V31.82H22.485V44.89H36.465C36.365 47.71 35.565 49.99 34.045 51.85C32.485 53.76 29.975 54.68 26.375 54.68C22.775 54.68 20.055 53.56 18.105 51.25C16.105 48.9 15.095 45.7 15.095 41.75V26.39C15.095 22.39 16.105 19.21 18.085 16.95C20.045 14.72 22.705 13.63 26.205 13.63C28.555 13.63 30.495 14.08 31.995 14.97C33.495 15.87 34.585 17.04 35.325 18.57C36.085 20.14 36.475 21.93 36.475 23.88V26.13H50.505V24.24C50.505 16.9 48.355 10.96 44.125 6.61003C39.885 2.24003 33.855 0.0300293 26.205 0.0300293C18.555 0.0300293 12.295 2.36003 7.74502 6.96003C3.20502 11.55 0.89502 18.15 0.89502 26.57V41.57C0.89502 47.15 1.93502 51.97 3.97502 55.9C6.04502 59.86 8.87502 62.93 12.395 64.99H12.405Z" fill="white"/>
<path d="M208.455 60C212.855 55.47 215.085 48.72 215.085 39.96V28.17C215.085 19.4 212.855 12.66 208.455 8.13003C204.045 3.59003 197.585 1.28003 189.265 1.28003H163.445V14.7H171.205V53.42H163.445V66.84H189.265C197.585 66.84 204.035 64.54 208.455 59.99V60ZM200.895 40.32C200.895 44.46 199.965 47.67 198.135 49.88C196.345 52.03 193.505 53.08 189.445 53.08H185.415V15.06H189.445C193.445 15.06 196.365 16.12 198.135 18.22C199.965 20.4 200.895 23.62 200.895 27.81V40.31V40.32Z" fill="white"/>
<path d="M74.875 20.55C75.045 20.47 75.125 20.19 75.245 20.01C75.035 19.92 74.815 19.73 74.635 19.77C74.155 19.86 73.675 20.02 73.225 20.21C73.065 20.28 72.975 20.52 72.855 20.68C73.035 20.79 73.225 20.91 73.435 21.04C73.945 20.87 74.435 20.75 74.885 20.55H74.875Z" fill="white"/>
<path d="M79.9351 21.28C80.3151 21.23 80.6651 20.89 81.0251 20.67C80.7651 20.42 80.5151 20.17 80.2551 19.92C79.6251 20.1 79.0851 20.18 79.0851 20.78C79.0851 20.96 79.6651 21.32 79.9351 21.28Z" fill="white"/>
<path d="M78.675 18.5C77.965 18.09 76.625 18.32 76.255 18.92C76.185 19.04 76.255 19.41 76.365 19.46C77.025 19.8 78.305 19.26 78.675 18.5Z" fill="white"/>
<path d="M87.795 19.5901C88.025 19.4601 88.275 19.3201 88.525 19.1801C88.315 18.9601 88.135 18.6601 87.875 18.5401C87.595 18.4101 87.225 18.4201 86.905 18.4601C86.725 18.4801 86.575 18.6801 86.405 18.8001C86.525 18.9601 86.615 19.1801 86.775 19.2601C87.065 19.4101 87.395 19.4701 87.795 19.5901Z" fill="white"/>
<path d="M84.0951 19.1001C83.7651 18.8901 83.4451 18.5501 83.0851 18.5001C82.8051 18.4701 82.4851 18.8001 82.1851 18.9701C82.4851 19.1901 82.7951 19.4001 83.1651 19.6701C83.5351 19.4401 83.8151 19.2701 84.0851 19.0901L84.0951 19.1001Z" fill="white"/>
<path d="M99.625 6.94003C94.965 2.35003 88.645 0.0300293 80.845 0.0300293C73.045 0.0300293 66.725 2.36003 62.065 6.95003C57.395 11.54 55.035 18.15 55.035 26.57V41.57C55.035 50 57.405 56.6 62.065 61.19C66.725 65.78 73.045 68.1 80.845 68.1C88.645 68.1 94.965 65.77 99.625 61.19C104.295 56.6 106.655 49.99 106.655 41.57V26.57C106.655 18.15 104.285 11.54 99.625 6.95003V6.94003ZM66.565 25.83C67.475 22.72 69.585 20.67 72.375 19.21C74.885 17.9 77.605 17.33 80.395 17.11C84.415 16.79 88.355 17.16 92.135 18.64C95.225 19.85 97.635 21.85 98.975 24.96C99.205 25.48 99.365 26.04 99.485 26.6C99.695 27.64 99.555 28 98.735 28.72C98.975 28.77 99.175 28.81 99.535 28.89C99.425 29.13 99.375 29.39 99.215 29.53C99.105 29.63 98.845 29.56 98.655 29.56C88.145 29.56 77.625 29.56 67.115 29.56C66.705 29.56 66.165 29.7 66.395 28.87C66.645 28.84 66.875 28.82 67.275 28.77C66.015 27.94 66.255 26.89 66.565 25.83ZM65.325 32.4C64.835 32.08 64.925 31.64 65.415 31.49C66.035 31.31 66.765 31.1 67.335 31.28C68.835 31.76 70.275 32.42 71.725 33.05C72.315 33.3 72.875 33.65 73.455 33.92C74.845 34.56 76.025 34.32 76.875 33.06C77.655 31.9 78.745 31.44 80.025 31.33C81.995 31.16 83.885 31.46 85.705 32.29C86.435 32.62 87.245 32.83 88.045 32.9C88.575 32.95 89.275 32.81 89.655 32.48C90.965 31.33 92.455 31.44 93.945 31.7C94.995 31.88 96.015 32.27 97.055 32.57C97.625 32.73 98.195 32.95 98.785 33.03C99.315 33.1 99.625 33.31 99.765 33.82C100.035 34.83 100.305 35.84 100.615 37C98.585 37.09 96.715 37.23 94.845 37.24C85.675 37.26 76.505 37.26 67.335 37.24C66.535 37.24 65.725 37.11 64.785 37.02C65.075 35.84 65.315 34.7 65.635 33.58C65.775 33.08 65.815 32.73 65.325 32.41V32.4ZM101.495 41.91C101.315 42.36 101.035 42.57 100.655 42.12C100.105 41.45 99.445 41.65 98.715 41.84C99.905 42.56 99.585 43.63 99.445 44.63C99.265 45.93 98.595 46.99 97.345 47.43C96.045 47.89 94.685 48.28 93.325 48.45C87.945 49.11 82.545 49.04 77.145 48.81C74.735 48.7 72.315 48.39 69.935 48C68.135 47.71 66.765 46.71 66.445 44.75C66.275 43.69 65.795 42.48 67.395 41.91L67.295 41.72C66.725 41.72 66.145 41.66 65.585 41.74C65.015 41.82 64.715 41.61 64.545 41.11C64.545 41.09 64.525 41.07 64.515 41.04C63.735 39.04 63.935 38.63 65.945 38.03C66.245 37.94 66.555 37.88 66.845 37.76C67.615 37.46 68.215 37.39 68.885 38.17C69.275 38.62 70.185 38.79 70.865 38.78C72.365 38.74 73.915 38.69 75.355 38.31C78.385 37.5 80.735 38.71 82.965 40.49C83.135 40.62 83.285 40.78 83.435 40.93C84.275 41.73 84.595 41.69 85.135 40.64C85.405 40.11 85.595 39.54 85.825 38.98C86.145 38.18 86.465 37.99 87.325 38.18C88.925 38.54 90.325 39.3 91.625 40.27C92.195 40.7 92.815 41.07 93.425 41.45C93.805 41.69 94.095 41.58 94.285 41.16C94.465 40.77 94.655 40.38 94.855 40C95.065 39.59 95.365 39.44 95.795 39.68C95.895 39.74 96.015 39.78 96.125 39.82C97.285 40.29 97.925 39.94 98.145 38.73C98.295 37.9 98.375 37.84 99.155 38.13C99.575 38.29 99.995 38.49 100.385 38.72C101.715 39.49 102.055 40.51 101.475 41.93L101.495 41.91Z" fill="white"/>
<path d="M99.625 6.94003C94.965 2.35003 88.645 0.0300293 80.845 0.0300293C73.045 0.0300293 66.725 2.36003 62.065 6.95003C57.395 11.54 55.035 18.15 55.035 26.57V41.57C55.035 50 57.405 56.6 62.065 61.19C66.725 65.78 73.045 68.1 80.845 68.1C88.645 68.1 94.965 65.77 99.625 61.19C104.295 56.6 106.655 49.99 106.655 41.57V26.57C106.655 18.15 104.285 11.54 99.625 6.95003V6.94003ZM66.565 25.83C67.475 22.72 69.585 20.67 72.375 19.21C74.885 17.9 77.605 17.33 80.395 17.11C84.415 16.79 88.355 17.16 92.135 18.64C95.225 19.85 97.635 21.85 98.975 24.96C99.205 25.48 99.365 26.04 99.485 26.6C99.695 27.64 99.555 28 98.735 28.72C98.975 28.77 99.175 28.81 99.535 28.89C99.425 29.13 99.375 29.39 99.215 29.53C99.105 29.63 98.845 29.56 98.655 29.56C88.145 29.56 77.625 29.56 67.115 29.56C66.705 29.56 66.165 29.7 66.395 28.87C66.645 28.84 66.875 28.82 67.275 28.77C66.015 27.94 66.255 26.89 66.565 25.83ZM65.325 32.4C64.835 32.08 64.925 31.64 65.415 31.49C66.035 31.31 66.765 31.1 67.335 31.28C68.835 31.76 70.275 32.42 71.725 33.05C72.315 33.3 72.875 33.65 73.455 33.92C74.845 34.56 76.025 34.32 76.875 33.06C77.655 31.9 78.745 31.44 80.025 31.33C81.995 31.16 83.885 31.46 85.705 32.29C86.435 32.62 87.245 32.83 88.045 32.9C88.575 32.95 89.275 32.81 89.655 32.48C90.965 31.33 92.455 31.44 93.945 31.7C94.995 31.88 96.015 32.27 97.055 32.57C97.625 32.73 98.195 32.95 98.785 33.03C99.315 33.1 99.625 33.31 99.765 33.82C100.035 34.83 100.305 35.84 100.615 37C98.585 37.09 96.715 37.23 94.845 37.24C85.675 37.26 76.505 37.26 67.335 37.24C66.535 37.24 65.725 37.11 64.785 37.02C65.075 35.84 65.315 34.7 65.635 33.58C65.775 33.08 65.815 32.73 65.325 32.41V32.4ZM101.495 41.91C101.315 42.36 101.035 42.57 100.655 42.12C100.105 41.45 99.445 41.65 98.715 41.84C99.905 42.56 99.585 43.63 99.445 44.63C99.265 45.93 98.595 46.99 97.345 47.43C96.045 47.89 94.685 48.28 93.325 48.45C87.945 49.11 82.545 49.04 77.145 48.81C74.735 48.7 72.315 48.39 69.935 48C68.135 47.71 66.765 46.71 66.445 44.75C66.275 43.69 65.795 42.48 67.395 41.91L67.295 41.72C66.725 41.72 66.145 41.66 65.585 41.74C65.015 41.82 64.715 41.61 64.545 41.11C64.545 41.09 64.525 41.07 64.515 41.04C63.735 39.04 63.935 38.63 65.945 38.03C66.245 37.94 66.555 37.88 66.845 37.76C67.615 37.46 68.215 37.39 68.885 38.17C69.275 38.62 70.185 38.79 70.865 38.78C72.365 38.74 73.915 38.69 75.355 38.31C78.385 37.5 80.735 38.71 82.965 40.49C83.135 40.62 83.285 40.78 83.435 40.93C84.275 41.73 84.595 41.69 85.135 40.64C85.405 40.11 85.595 39.54 85.825 38.98C86.145 38.18 86.465 37.99 87.325 38.18C88.925 38.54 90.325 39.3 91.625 40.27C92.195 40.7 92.815 41.07 93.425 41.45C93.805 41.69 94.095 41.58 94.285 41.16C94.465 40.77 94.655 40.38 94.855 40C95.065 39.59 95.365 39.44 95.795 39.68C95.895 39.74 96.015 39.78 96.125 39.82C97.285 40.29 97.925 39.94 98.145 38.73C98.295 37.9 98.375 37.84 99.155 38.13C99.575 38.29 99.995 38.49 100.385 38.72C101.715 39.49 102.055 40.51 101.475 41.93L101.495 41.91Z" fill="white"/>
<path d="M93.5851 21.4401C93.7751 21.4001 94.0251 21.2601 94.0751 21.1001C94.1251 20.9501 94.0251 20.6401 93.8951 20.5401C93.4351 20.2201 92.9251 19.9701 92.4351 19.7001C91.8251 19.8101 91.6251 20.1201 91.8751 20.6001C92.1451 21.1201 93.0151 21.5701 93.5851 21.4401Z" fill="white"/>
<path d="M131.775 67.8101C132.235 66.4001 133.145 65.16 134.435 64.34L139.295 61.2C139.295 61.2 139.305 61.2 139.315 61.19C142.155 59.4 146.055 60.16 147.895 62.84C148.455 63.59 149.025 64.3301 149.595 65.0701C151.555 64.0401 153.345 62.76 154.935 61.2C159.605 56.61 161.965 50 161.965 41.58V26.58C161.965 18.16 159.595 11.55 154.935 6.96005C150.275 2.37005 143.955 0.0500488 136.155 0.0500488C128.355 0.0500488 122.035 2.38005 117.375 6.97005C112.705 11.56 110.345 18.17 110.345 26.59V41.59C110.345 50.0201 112.715 56.62 117.375 61.21C121.125 64.9 125.965 67.1001 131.775 67.8301V67.8101ZM124.535 26.21C124.535 22.28 125.545 19.26 127.635 16.97C129.685 14.72 132.475 13.63 136.155 13.63C139.835 13.63 142.695 14.72 144.715 16.96C146.775 19.25 147.775 22.27 147.775 26.2V41.92C147.775 45.8 146.745 48.91 144.715 51.16C142.695 53.4 139.895 54.49 136.155 54.49C132.415 54.49 129.685 53.4 127.635 51.15C125.545 48.86 124.535 45.84 124.535 41.91V26.19V26.21Z" fill="white"/>
<path d="M2.60498 136.73H17.525V110.74H43.035V96.96H17.525V84.93H45.195V71.15H2.60498V136.73Z" fill="white"/>
<path d="M74.195 69.9C65.925 69.9 59.235 72.21 54.295 76.78C49.315 81.38 46.795 87.99 46.795 96.43V111.43C46.795 119.87 49.315 126.49 54.295 131.08C59.235 135.65 65.935 137.96 74.195 137.96C82.455 137.96 89.155 135.65 94.095 131.08C99.075 126.48 101.595 119.87 101.595 111.43V96.43C101.595 87.99 99.075 81.37 94.095 76.78C89.155 72.21 82.455 69.9 74.195 69.9ZM61.715 96.08C61.715 92.17 62.795 89.16 65.005 86.88C67.205 84.61 70.215 83.51 74.195 83.51C78.175 83.51 81.245 84.61 83.415 86.88C85.605 89.16 86.675 92.18 86.675 96.09V111.81C86.675 115.72 85.615 118.73 83.415 121.02C81.245 123.29 78.225 124.39 74.195 124.39C70.165 124.39 67.215 123.29 65.005 121.02C62.785 118.74 61.715 115.73 61.715 111.82V96.1V96.08Z" fill="white"/>
<path d="M210.045 77.97C205.365 73.45 198.525 71.15 189.715 71.15H178.495C178.785 71.63 178.945 72.17 178.945 72.74C178.945 79.55 178.945 86.37 178.945 93.18C178.945 93.99 178.625 94.77 178.045 95.35C177.465 95.93 176.695 96.25 175.875 96.25H170.565V123.3H162.305V136.72H189.705C198.525 136.72 205.365 134.43 210.035 129.9C214.725 125.36 217.105 118.61 217.105 109.82V98.03C217.105 89.25 214.725 82.49 210.035 77.95L210.045 77.97ZM202.185 110.19C202.185 114.31 201.195 117.51 199.245 119.71C197.345 121.86 194.195 122.94 189.885 122.94H185.495V84.93H189.885C194.195 84.93 197.355 86.01 199.255 88.13C201.205 90.3 202.185 93.52 202.185 97.69V110.19Z" fill="white"/>
<path d="M147.565 81.08C148.625 82.07 149.745 82.82 150.905 83.28C151.045 83.34 151.195 83.38 151.335 83.42V77.16C150.825 78.13 150.155 79.02 149.355 79.76C148.815 80.27 148.205 80.71 147.565 81.08Z" fill="white"/>
<path d="M112.725 102.84C115.195 103.34 117.345 103.31 119.155 102.74C119.665 102.59 120.165 102.37 120.645 102.12V96.08C120.645 92.17 121.725 89.16 123.935 86.88C125.445 85.32 127.345 84.33 129.655 83.85C130.295 82.94 130.965 82.04 131.665 81.18C131.335 81.28 130.985 81.34 130.635 81.34C130.335 81.34 130.045 81.3 129.745 81.23C128.695 80.97 127.805 80.25 127.345 79.29C126.945 78.49 126.855 77.58 127.105 76.71C127.365 75.81 127.965 75.03 128.775 74.55L131.845 72.57C131.755 72.08 131.665 71.58 131.555 71.09C131.485 70.72 131.445 70.34 131.445 69.97C123.955 70.27 117.815 72.54 113.215 76.79C108.235 81.39 105.715 88 105.715 96.44V106.27C106.975 103.79 109.875 102.31 112.715 102.84H112.725Z" fill="white"/>
<path d="M155.985 96.25C155.575 96.24 155.255 96.22 154.935 96.21C154.355 96.18 153.825 95.98 153.375 95.68C151.545 95.66 149.705 95.41 147.955 94.87C147.115 94.62 146.295 94.27 145.465 93.89C145.545 94.59 145.605 95.32 145.605 96.09V103.27C146.315 104.08 146.995 104.92 147.575 105.82C149.695 109.05 151.015 113.06 151.385 117.39C151.485 118.47 151.625 119.92 150.955 121.45C150.025 123.85 147.555 125.49 144.915 125.49C144.635 125.49 144.345 125.47 144.055 125.43C142.355 125.26 140.815 124.31 139.745 122.95C137.935 123.9 135.755 124.37 133.135 124.37C129.155 124.37 126.155 123.27 123.945 121C122.565 119.58 121.625 117.87 121.115 115.84C117.715 116.57 113.975 116.56 110.165 115.76C108.655 115.43 107.325 114.59 106.385 113.4C106.145 113.1 105.945 112.78 105.765 112.45C105.965 120.4 108.455 126.68 113.225 131.09C118.165 135.66 124.865 137.97 133.125 137.97C141.385 137.97 148.085 135.66 153.025 131.09C158.005 126.49 160.525 119.88 160.525 111.44V96.44C160.525 96.37 160.525 96.32 160.525 96.25H155.995H155.985Z" fill="white"/>
<path d="M140.945 63.78C142.345 62.9 144.465 63.2 145.405 64.62C146.115 65.56 146.835 66.5 147.555 67.44C142.035 71.01 136.515 74.58 130.995 78.15C130.705 78.39 130.235 78.27 130.095 77.93C129.935 77.65 130.115 77.3 130.375 77.16C131.985 76.11 133.605 75.07 135.225 74.03C135.005 72.83 134.815 71.63 134.555 70.44C134.295 69.11 134.925 67.66 136.075 66.93C137.695 65.88 139.325 64.83 140.945 63.79V63.78Z" fill="#FFBF00"/>
<path d="M136.325 75.17C140.085 72.73 143.855 70.31 147.615 67.86C148.755 69.09 149.435 70.75 149.445 72.43C149.485 74.33 148.665 76.22 147.275 77.51C145.685 79.01 143.335 79.67 141.205 79.19C139.045 78.75 137.185 77.19 136.335 75.17H136.325Z" fill="white"/>
<path d="M154.405 72.73C161.565 72.73 168.715 72.73 175.875 72.73C175.875 79.55 175.875 86.36 175.875 93.17C169.245 93.17 162.615 93.17 155.985 93.17C155.685 93.17 155.395 93.14 155.105 93.13C157.695 92.94 160.195 92.04 162.465 90.82C163.365 90.39 164.195 89.73 164.555 88.78C165.165 87.38 164.705 85.63 163.495 84.71C162.405 83.83 160.775 83.71 159.565 84.42C157.985 85.34 156.235 86.01 154.405 86.2C154.405 81.71 154.405 77.22 154.405 72.73Z" fill="#FFBF00"/>
<path d="M135.745 81.1401C137.425 79.3301 140.415 78.9501 142.475 80.3101C143.275 80.9301 143.915 81.7101 144.595 82.4501C146.055 84.0101 147.795 85.3401 149.785 86.1301C151.345 86.7501 153.065 86.9901 154.735 86.7701C156.455 86.5601 158.115 85.9401 159.615 85.0901C160.145 84.7701 160.735 84.5501 161.365 84.5601C162.585 84.5601 163.745 85.4201 164.095 86.6001C164.495 87.8301 163.945 89.2701 162.835 89.9201C160.835 91.1001 158.645 91.9701 156.355 92.3801C153.865 92.8301 151.275 92.6701 148.865 91.9201C146.845 91.3001 144.965 90.2801 143.275 89.0201C140.565 92.4501 138.345 96.2601 136.715 100.31C140.045 101.9 142.995 104.35 145.005 107.46C146.985 110.48 148.035 114.05 148.335 117.63C148.415 118.49 148.505 119.39 148.155 120.2C147.595 121.64 146.015 122.59 144.475 122.38C142.845 122.22 141.475 120.78 141.385 119.14C141.275 117.12 140.915 115.09 140.115 113.23C139.345 111.4 138.125 109.75 136.585 108.5C135.145 107.32 133.455 106.47 131.705 105.86C129.275 108.82 126.055 111.16 122.395 112.33C118.665 113.56 114.625 113.55 110.805 112.75C110.015 112.58 109.305 112.12 108.805 111.49C108.025 110.53 107.815 109.14 108.295 107.99C108.875 106.48 110.585 105.54 112.175 105.84C114.775 106.37 117.535 106.46 120.095 105.66C122.365 104.97 124.375 103.56 125.935 101.77C125.445 100.42 125.615 98.9301 126.125 97.6201C128.135 91.5201 131.435 85.8601 135.775 81.1301L135.745 81.1401Z" fill="white"/>
</svg>
