<svg width="196" height="172" viewBox="0 0 196 172" fill="none" xmlns="http://www.w3.org/2000/svg">
<path d="M73.0688 107.351C82.8105 112.002 91.4405 119.169 97.3207 128.268C103.113 137.102 106.185 147.546 107.062 158.019C107.296 160.535 107.56 163.168 106.536 165.538C104.898 169.75 100.275 172.529 95.7702 171.915C91.0017 171.447 86.9939 167.234 86.7306 162.437C86.4088 156.527 85.3556 150.589 83.0153 145.147C80.7627 139.794 77.1936 134.967 72.6885 131.31C68.4758 127.858 63.5318 125.371 58.4123 123.587C58.4123 123.587 58.4123 123.587 58.3831 123.587C60.5186 119.257 62.9175 116.361 64.6728 114.518C68.0078 111.066 73.0688 107.292 73.098 107.351H73.0688Z" fill="white"/>
<path d="M70.0265 121.012C62.9177 129.671 53.4978 136.517 42.7907 139.94C31.8788 143.538 20.06 143.509 8.8848 141.168C6.5737 140.671 4.49664 139.325 3.03392 137.482C0.752073 134.674 0.13773 130.607 1.54194 127.243C3.2387 122.826 8.2412 120.076 12.8927 120.953C20.4988 122.504 28.573 122.767 36.0622 120.427C42.7029 118.408 48.583 114.283 53.1467 109.047C53.1467 108.901 70.2898 121.012 70.0558 121.012H70.0265Z" fill="white"/>
<path d="M77.9544 52.4974C82.8691 47.2023 91.6162 46.0907 97.6426 50.0693C99.9829 51.883 101.855 54.1649 103.845 56.3297C108.116 60.8934 113.206 64.7842 119.028 67.0953C123.591 68.9091 128.623 69.6112 133.508 68.9676C138.54 68.3533 143.396 66.5395 147.785 64.0529C149.335 63.1167 151.061 62.4731 152.904 62.5024C156.473 62.5024 159.867 65.0183 160.891 68.4703C162.061 72.0686 160.452 76.2812 157.205 78.1828C151.354 81.6348 144.947 84.1799 138.248 85.3793C130.963 86.6958 123.386 86.2277 116.336 84.0336C110.427 82.2199 104.927 79.2359 99.9829 75.5499C95.0389 81.7225 91.5577 87.2516 89.2173 91.3765C86.1163 96.8471 83.3664 101.645 80.792 108.578C79.4463 112.235 79.1538 113.698 77.5448 116.126C76.5794 117.559 73.0689 123.059 66.1063 124.785C62.508 125.663 57.0667 127.008 53.2929 123.995C50.2212 121.538 49.7238 117.384 49.2265 112.82C48.5244 106.618 49.5483 101.791 49.7824 100.679C52.8248 87.0176 62.9468 68.6751 78.0129 52.4389L77.9544 52.4974Z" fill="white"/>
<path d="M94.2198 1.44914C98.3154 -1.12524 104.517 -0.247612 107.267 3.90652C109.344 6.65643 111.451 9.40635 113.557 12.1563C97.4085 22.6001 81.2601 33.0439 65.1117 43.4877C64.2633 44.1898 62.8883 43.8388 62.4788 42.8441C62.0107 42.025 62.5373 41.0011 63.2979 40.5916C68.0078 37.5198 72.7471 34.4774 77.4863 31.4349C76.8427 27.9244 76.2868 24.4139 75.5262 20.9326C74.7656 17.0417 76.6086 12.7999 79.9729 10.6643C84.7121 7.59257 89.4806 4.52086 94.2198 1.4784V1.44914Z" fill="#FFBF00"/>
<path d="M80.7335 34.7694C91.7332 27.6313 102.762 20.5517 113.762 13.3844C117.097 16.9827 119.086 21.8389 119.115 26.7537C119.232 32.312 116.833 37.8411 112.767 41.6149C108.116 46.0031 101.241 47.9339 95.0097 46.5297C88.6907 45.2425 83.2494 40.6788 80.7628 34.7694H80.7335Z" fill="white"/>
<path d="M132.397 27.6317C153.343 27.6317 174.26 27.6317 195.206 27.6317C195.206 47.5832 195.206 67.5055 195.206 87.4277C175.811 87.4277 156.415 87.4277 137.019 87.4277C136.142 87.4277 135.293 87.34 134.445 87.3107C142.022 86.7549 149.335 84.122 155.976 80.553C158.609 79.295 161.037 77.3642 162.09 74.585C163.875 70.4894 162.529 65.3699 158.989 62.6785C155.801 60.1041 151.032 59.7531 147.492 61.8301C142.87 64.5215 137.751 66.4816 132.397 67.0374C132.397 53.9022 132.397 40.7669 132.397 27.6317Z" fill="#FFBF00"/>
</svg>
