<svg width="32" height="32" viewBox="0 0 32 32" fill="none" xmlns="http://www.w3.org/2000/svg">
<rect width="32" height="32" rx="16" fill="#323435"/>
<path d="M18.625 9.41675H12.25C11.8743 9.41675 11.5139 9.566 11.2483 9.83168C10.9826 10.0974 10.8333 10.4577 10.8333 10.8334V22.1667C10.8333 22.5425 10.9826 22.9028 11.2483 23.1685C11.5139 23.4342 11.8743 23.5834 12.25 23.5834H20.75C21.1257 23.5834 21.4861 23.4342 21.7517 23.1685C22.0174 22.9028 22.1667 22.5425 22.1667 22.1667V12.9584L18.625 9.41675Z" stroke="white" stroke-linecap="round" stroke-linejoin="round"/>
<path d="M17.9167 9.41675V12.2501C17.9167 12.6258 18.0659 12.9861 18.3316 13.2518C18.5973 13.5175 18.9576 13.6667 19.3333 13.6667H22.1667" stroke="white" stroke-linecap="round" stroke-linejoin="round"/>
<g clip-path="url(#clip0_91_225)">
<rect x="2.5" y="13.5757" width="15" height="6.67512" rx="2" fill="#57595B"/>
<path d="M4.98 19.5757V15.3757H6.588C6.84 15.3757 7.064 15.4257 7.26 15.5257C7.46 15.6217 7.618 15.7597 7.734 15.9397C7.85 16.1197 7.908 16.3377 7.908 16.5937V16.6717C7.908 16.9237 7.848 17.1417 7.728 17.3257C7.612 17.5057 7.454 17.6437 7.254 17.7397C7.054 17.8357 6.832 17.8837 6.588 17.8837H5.484V19.5757H4.98ZM5.484 17.4277H6.534C6.802 17.4277 7.014 17.3617 7.17 17.2297C7.326 17.0937 7.404 16.9037 7.404 16.6597V16.5997C7.404 16.3557 7.326 16.1677 7.17 16.0357C7.018 15.8997 6.806 15.8317 6.534 15.8317H5.484V17.4277ZM8.36208 19.5757V19.1257H8.95008V15.8257H8.36208V15.3757H10.0001C10.5521 15.3757 10.9781 15.5157 11.2781 15.7957C11.5821 16.0757 11.7341 16.5057 11.7341 17.0857V17.8657C11.7341 18.4497 11.5821 18.8817 11.2781 19.1617C10.9781 19.4377 10.5521 19.5757 10.0001 19.5757H8.36208ZM9.45408 19.1197H10.0001C10.4081 19.1197 10.7161 19.0197 10.9241 18.8197C11.1321 18.6197 11.2361 18.3097 11.2361 17.8897V17.0677C11.2361 16.6397 11.1321 16.3277 10.9241 16.1317C10.7161 15.9357 10.4081 15.8377 10.0001 15.8377H9.45408V19.1197ZM12.5386 19.5757V15.3757H15.0766V15.8317H13.0426V17.2417H14.9146V17.6977H13.0426V19.5757H12.5386Z" fill="white"/>
</g>
<defs>
<clipPath id="clip0_91_225">
<rect x="2.5" y="13.5757" width="15" height="6.67512" rx="2" fill="white"/>
</clipPath>
</defs>
</svg>
