<svg width="32" height="32" viewBox="0 0 32 32" fill="none" xmlns="http://www.w3.org/2000/svg">
<rect width="32" height="32" rx="16" fill="#323435"/>
<path d="M18.625 9.41675H12.25C11.8743 9.41675 11.5139 9.566 11.2483 9.83168C10.9826 10.0974 10.8333 10.4577 10.8333 10.8334V22.1667C10.8333 22.5425 10.9826 22.9028 11.2483 23.1685C11.5139 23.4342 11.8743 23.5834 12.25 23.5834H20.75C21.1257 23.5834 21.4861 23.4342 21.7517 23.1685C22.0174 22.9028 22.1667 22.5425 22.1667 22.1667V12.9584L18.625 9.41675Z" stroke="white" stroke-linecap="round" stroke-linejoin="round"/>
<path d="M17.9167 9.41675V12.2501C17.9167 12.6258 18.0659 12.9861 18.3316 13.2518C18.5973 13.5175 18.9576 13.6667 19.3333 13.6667H22.1667" stroke="white" stroke-linecap="round" stroke-linejoin="round"/>
<g clip-path="url(#clip0_91_174)">
<rect x="3" y="13.5757" width="16" height="6.67512" rx="2" fill="#7E46E9"/>
<path d="M5.48 19.5757V15.3757H7.088C7.34 15.3757 7.564 15.4257 7.76 15.5257C7.96 15.6217 8.118 15.7597 8.234 15.9397C8.35 16.1197 8.408 16.3377 8.408 16.5937V16.6717C8.408 16.9237 8.348 17.1417 8.228 17.3257C8.112 17.5057 7.954 17.6437 7.754 17.7397C7.554 17.8357 7.332 17.8837 7.088 17.8837H5.984V19.5757H5.48ZM5.984 17.4277H7.034C7.302 17.4277 7.514 17.3617 7.67 17.2297C7.826 17.0937 7.904 16.9037 7.904 16.6597V16.5997C7.904 16.3557 7.826 16.1677 7.67 16.0357C7.518 15.8997 7.306 15.8317 7.034 15.8317H5.984V17.4277ZM9.08352 19.5757V15.3757H10.0615L11.5255 19.2577H11.6035V15.3757H12.1015V19.5757H11.1235L9.66552 15.6877H9.58152V19.5757H9.08352ZM14.5319 19.6597C14.2199 19.6597 13.9439 19.5957 13.7039 19.4677C13.4679 19.3357 13.2819 19.1437 13.1459 18.8917C13.0139 18.6397 12.9479 18.3277 12.9479 17.9557V16.9957C12.9479 16.4397 13.0959 16.0177 13.3919 15.7297C13.6879 15.4377 14.0859 15.2917 14.5859 15.2917C15.0819 15.2917 15.4599 15.4277 15.7199 15.6997C15.9799 15.9717 16.1099 16.3357 16.1099 16.7917V16.8217H15.6119V16.7797C15.6119 16.5797 15.5759 16.4017 15.5039 16.2457C15.4319 16.0897 15.3199 15.9677 15.1679 15.8797C15.0159 15.7877 14.8219 15.7417 14.5859 15.7417C14.2299 15.7417 13.9519 15.8517 13.7519 16.0717C13.5519 16.2877 13.4519 16.5917 13.4519 16.9837V17.9677C13.4519 18.3597 13.5519 18.6657 13.7519 18.8857C13.9519 19.1017 14.2319 19.2097 14.5919 19.2097C14.9439 19.2097 15.2019 19.1097 15.3659 18.9097C15.5339 18.7097 15.6179 18.4437 15.6179 18.1117V18.0097H14.3459V17.5777H16.1099V19.5757H15.6539V19.1197H15.5699C15.5259 19.2077 15.4639 19.2937 15.3839 19.3777C15.3039 19.4617 15.1959 19.5297 15.0599 19.5817C14.9239 19.6337 14.7479 19.6597 14.5319 19.6597Z" fill="white"/>
</g>
<defs>
<clipPath id="clip0_91_174">
<rect x="3" y="13.5757" width="16" height="6.67512" rx="2" fill="white"/>
</clipPath>
</defs>
</svg>
