<svg width="24" height="25" viewBox="0 0 24 25" fill="none" xmlns="http://www.w3.org/2000/svg">
<path d="M15 2.62119H6C5.46957 2.62119 4.96086 2.8319 4.58579 3.20697C4.21071 3.58204 4 4.09075 4 4.62119V20.6212C4 21.1516 4.21071 21.6603 4.58579 22.0354C4.96086 22.4105 5.46957 22.6212 6 22.6212H18C18.5304 22.6212 19.0391 22.4105 19.4142 22.0354C19.7893 21.6603 20 21.1516 20 20.6212V7.62119L15 2.62119Z" stroke="#FFBF00" stroke-width="2" stroke-linecap="round" stroke-linejoin="round"/>
<path d="M14 2.62119V6.62119C14 7.15162 14.2107 7.66033 14.5858 8.0354C14.9609 8.41047 15.4696 8.62119 16 8.62119H20" stroke="#FFBF00" stroke-width="2" stroke-linecap="round" stroke-linejoin="round"/>
<path d="M12 12.6212V18.6212" stroke="#FFBF00" stroke-width="2" stroke-linecap="round" stroke-linejoin="round"/>
<path d="M15 15.6212L12 12.6212L9 15.6212" stroke="#FFBF00" stroke-width="2" stroke-linecap="round" stroke-linejoin="round"/>
</svg>
